<svg width="94" height="89" viewBox="0 0 94 89" fill="none" xmlns="http://www.w3.org/2000/svg">
<g id="carbon:result-old">
<path id="Vector" d="M29.375 36.1562H35.25V41.7188H29.375V36.1562ZM41.125 36.1562H64.625V41.7188H41.125V36.1562ZM29.375 50.0625H35.25V55.625H29.375V50.0625ZM29.375 63.9688H35.25V69.5312H29.375V63.9688Z" fill="black"/>
<path id="Vector_2" d="M20.5625 77.875V19.4688H29.375V27.8125H64.625V19.4688H73.4375V41.7188H79.3125V19.4688C79.3125 17.9935 78.6935 16.5786 77.5918 15.5355C76.49 14.4923 74.9956 13.9062 73.4375 13.9062H64.625V11.125C64.625 9.64973 64.006 8.23489 62.9043 7.19172C61.8025 6.14855 60.3081 5.5625 58.75 5.5625H35.25C33.6919 5.5625 32.1975 6.14855 31.0957 7.19172C29.994 8.23489 29.375 9.64973 29.375 11.125V13.9062H20.5625C19.0044 13.9062 17.51 14.4923 16.4082 15.5355C15.3065 16.5786 14.6875 17.9935 14.6875 19.4688V77.875C14.6875 79.3503 15.3065 80.7651 16.4082 81.8083C17.51 82.8514 19.0044 83.4375 20.5625 83.4375H47V77.875H20.5625ZM35.25 11.125H58.75V22.25H35.25V11.125Z" fill="#27CF4C"/>
<path id="Vector_3" d="M52.875 52.8437V59.5549C54.72 56.6341 57.3419 54.2226 60.4789 52.5611C63.6159 50.8996 67.1583 50.0462 70.7526 50.0861C74.3468 50.1259 77.8671 51.0576 80.9622 52.7882C84.0572 54.5188 86.6187 56.9878 88.391 59.9486C90.1633 62.9095 91.0844 66.2587 91.0623 69.6619C91.0402 73.0651 90.0757 76.4033 88.2651 79.3434C86.4546 82.2834 83.8612 84.7223 80.7439 86.4168C77.6266 88.1112 74.0945 89.0019 70.5 89V83.4375C73.1488 83.4408 75.7493 82.7658 78.026 81.484C80.3028 80.2022 82.171 78.3613 83.4329 76.1563C84.6948 73.9512 85.3035 71.4641 85.1943 68.9583C85.0852 66.4525 84.2624 64.0213 82.813 61.9221C81.3637 59.8229 79.3417 58.1339 76.9613 57.0339C74.5808 55.9339 71.9305 55.4639 69.2909 55.6737C66.6514 55.8834 64.1209 56.7651 61.9674 58.2254C59.8139 59.6857 58.1175 61.6702 57.058 63.9687H64.625V69.5312H47V52.8437H52.875Z" fill="#FAA454"/>
</g>
</svg>
