<svg width="94" height="89" viewBox="0 0 94 89" fill="none" xmlns="http://www.w3.org/2000/svg">
<g id="fluent-mdl2:workforce-management" clip-path="url(#clip0_332_171)">
<rect width="94" height="89" fill="white"/>
<path id="Vector" d="M82.25 55.625H94V89H47V55.625H58.75V44.5H82.25V55.625ZM64.625 55.625H76.375V50.0625H64.625V55.625ZM88.125 72.3125H82.25V77.875H76.375V72.3125H64.625V77.875H58.75V72.3125H52.875V83.4375H88.125V72.3125ZM52.875 61.1875V66.75H88.125V61.1875H52.875ZM41.125 38.9375C41.125 41.6318 40.4977 44.1523 39.2432 46.499C37.9886 48.8457 36.1986 50.8158 33.873 52.4092C35.25 53.0755 36.5505 53.8433 37.7744 54.7124C38.9984 55.5815 40.1152 56.5521 41.125 57.624V72.3125C41.125 70.0238 40.666 67.8654 39.748 65.8374C38.8301 63.8094 37.5755 62.0422 35.9844 60.5356C34.3932 59.0291 32.5114 57.8268 30.3389 56.9287C28.1663 56.0306 25.8867 55.596 23.5 55.625C21.0521 55.625 18.7725 56.0596 16.6611 56.9287C14.5498 57.7979 12.6833 58.9857 11.0615 60.4922C9.43978 61.9987 8.16992 63.7804 7.25195 65.8374C6.33398 67.8944 5.875 70.0527 5.875 72.3125H0C0 70.1976 0.30599 68.1551 0.917969 66.1851C1.52995 64.215 2.40202 62.3464 3.53418 60.5791C4.66634 58.8118 6.05859 57.2474 7.71094 55.8857C9.36328 54.5241 11.1686 53.3507 13.127 52.3657C10.832 50.8013 9.05729 48.8457 7.80273 46.499C6.54818 44.1523 5.9056 41.6318 5.875 38.9375C5.875 36.6488 6.33398 34.4904 7.25195 32.4624C8.16992 30.4344 9.42448 28.6672 11.0156 27.1606C12.6068 25.6541 14.4733 24.4518 16.6152 23.5537C18.7572 22.6556 21.0521 22.221 23.5 22.25C25.7031 22.25 27.7992 22.6121 29.7881 23.3364C31.777 24.0607 33.5977 25.1327 35.25 26.5522C36.2292 25.7121 37.3154 24.9733 38.5088 24.3359C37.4684 23.3219 36.6729 22.1486 36.1221 20.8159C35.5713 19.4832 35.2806 18.1071 35.25 16.6875C35.25 15.152 35.556 13.7179 36.168 12.3853C36.7799 11.0526 37.6214 9.86475 38.6924 8.82178C39.7633 7.77881 41.0026 6.9821 42.4102 6.43164C43.8177 5.88118 45.3477 5.59147 47 5.5625C48.6217 5.5625 50.1364 5.85221 51.5439 6.43164C52.9515 7.01107 54.2061 7.80778 55.3076 8.82178C56.4092 9.83577 57.2507 11.0091 57.832 12.3418C58.4134 13.6745 58.7194 15.123 58.75 16.6875C58.75 18.1071 58.4746 19.4832 57.9238 20.8159C57.373 22.1486 56.5622 23.3219 55.4912 24.3359C58.0309 25.6686 60.0964 27.4648 61.6875 29.7246C63.2786 27.4648 65.3441 25.6686 67.8838 24.3359C66.8434 23.3219 66.0479 22.1486 65.4971 20.8159C64.9463 19.4832 64.6556 18.1071 64.625 16.6875C64.625 15.152 64.931 13.7179 65.543 12.3853C66.1549 11.0526 66.9964 9.86475 68.0674 8.82178C69.1383 7.77881 70.3776 6.9821 71.7852 6.43164C73.1927 5.88118 74.7227 5.59147 76.375 5.5625C77.9967 5.5625 79.5114 5.85221 80.9189 6.43164C82.3265 7.01107 83.5811 7.80778 84.6826 8.82178C85.7842 9.83577 86.6256 11.0091 87.207 12.3418C87.7884 13.6745 88.0944 15.123 88.125 16.6875C88.125 18.1071 87.8496 19.4832 87.2988 20.8159C86.748 22.1486 85.9372 23.3219 84.8662 24.3359C86.2738 25.0602 87.5436 25.9438 88.6758 26.9868C89.8079 28.0298 90.7565 29.1742 91.5215 30.4199C92.2865 31.6657 92.8984 33.0273 93.3574 34.5049C93.8164 35.9824 94.0306 37.46 94 38.9375H88.125C88.125 37.402 87.819 35.9679 87.207 34.6353C86.5951 33.3026 85.7536 32.1147 84.6826 31.0718C83.6117 30.0288 82.3724 29.2321 80.9648 28.6816C79.5573 28.1312 78.0273 27.8415 76.375 27.8125C74.7533 27.8125 73.2386 28.1022 71.8311 28.6816C70.4235 29.2611 69.1689 30.0578 68.0674 31.0718C66.9658 32.0858 66.1244 33.2591 65.543 34.5918C64.9616 35.9245 64.6556 37.373 64.625 38.9375H58.75C58.75 37.402 58.444 35.9679 57.832 34.6353C57.2201 33.3026 56.3786 32.1147 55.3076 31.0718C54.2367 30.0288 52.9974 29.2321 51.5898 28.6816C50.1823 28.1312 48.6523 27.8415 47 27.8125C45.5007 27.8125 44.0472 28.0732 42.6396 28.5947C41.2321 29.1162 39.9928 29.884 38.9219 30.8979C39.6562 32.1147 40.207 33.404 40.5742 34.7656C40.9414 36.1273 41.125 37.5179 41.125 38.9375ZM76.375 11.125C75.5488 11.125 74.7839 11.2699 74.0801 11.5596C73.3763 11.8493 72.7643 12.2404 72.2441 12.7329C71.724 13.2254 71.2956 13.8193 70.959 14.5146C70.6224 15.21 70.4694 15.9342 70.5 16.6875C70.5 17.4697 70.653 18.194 70.959 18.8604C71.265 19.5267 71.6781 20.1061 72.1982 20.5986C72.7184 21.0911 73.3457 21.4967 74.0801 21.8154C74.8145 22.1341 75.5794 22.279 76.375 22.25C77.2012 22.25 77.9661 22.1051 78.6699 21.8154C79.3737 21.5257 79.9857 21.1346 80.5059 20.6421C81.026 20.1496 81.4544 19.5557 81.791 18.8604C82.1276 18.165 82.2806 17.4408 82.25 16.6875C82.25 15.9053 82.097 15.181 81.791 14.5146C81.485 13.8483 81.0719 13.2689 80.5518 12.7764C80.0316 12.2839 79.4043 11.8783 78.6699 11.5596C77.9355 11.2409 77.1706 11.096 76.375 11.125ZM47 11.125C46.1738 11.125 45.4089 11.2699 44.7051 11.5596C44.0013 11.8493 43.3893 12.2404 42.8691 12.7329C42.349 13.2254 41.9206 13.8193 41.584 14.5146C41.2474 15.21 41.0944 15.9342 41.125 16.6875C41.125 17.4697 41.278 18.194 41.584 18.8604C41.89 19.5267 42.3031 20.1061 42.8232 20.5986C43.3434 21.0911 43.9707 21.4967 44.7051 21.8154C45.4395 22.1341 46.2044 22.279 47 22.25C47.8262 22.25 48.5911 22.1051 49.2949 21.8154C49.9987 21.5257 50.6107 21.1346 51.1309 20.6421C51.651 20.1496 52.0794 19.5557 52.416 18.8604C52.7526 18.165 52.9056 17.4408 52.875 16.6875C52.875 15.9053 52.722 15.181 52.416 14.5146C52.11 13.8483 51.6969 13.2689 51.1768 12.7764C50.6566 12.2839 50.0293 11.8783 49.2949 11.5596C48.5605 11.2409 47.7956 11.096 47 11.125ZM23.5 50.0625C25.1217 50.0625 26.6364 49.7728 28.0439 49.1934C29.4515 48.6139 30.7061 47.8172 31.8076 46.8032C32.9092 45.7892 33.7507 44.6159 34.332 43.2832C34.9134 41.9505 35.2194 40.502 35.25 38.9375C35.25 37.402 34.944 35.9679 34.332 34.6353C33.7201 33.3026 32.8786 32.1147 31.8076 31.0718C30.7367 30.0288 29.4974 29.2321 28.0898 28.6816C26.6823 28.1312 25.1523 27.8415 23.5 27.8125C21.8783 27.8125 20.3636 28.1022 18.9561 28.6816C17.5485 29.2611 16.2939 30.0578 15.1924 31.0718C14.0908 32.0858 13.2493 33.2591 12.668 34.5918C12.0866 35.9245 11.7806 37.373 11.75 38.9375C11.75 40.473 12.056 41.9071 12.668 43.2397C13.2799 44.5724 14.1214 45.7603 15.1924 46.8032C16.2633 47.8462 17.5026 48.6429 18.9102 49.1934C20.3177 49.7438 21.8477 50.0335 23.5 50.0625Z" fill="#BF2D2D"/>
</g>
<defs>
<clipPath id="clip0_332_171">
<rect width="94" height="89" fill="white"/>
</clipPath>
</defs>
</svg>
