<svg width="94" height="89" viewBox="0 0 94 89" fill="none" xmlns="http://www.w3.org/2000/svg">
<g id="fluent-mdl2:production-floor-management">
<path id="Vector" d="M29.375 33.375H11.75V16.6875H29.375V33.375ZM52.875 33.375H35.25V16.6875H52.875V33.375ZM47 22.25H41.125V27.8125H47V22.25ZM76.375 33.375H58.75V16.6875H76.375V33.375ZM70.5 22.25H64.625V27.8125H70.5V22.25ZM64.625 55.625C64.625 54.8428 64.778 54.1185 65.084 53.4521C65.39 52.7858 65.8031 52.2064 66.3232 51.7139C66.8434 51.2214 67.4707 50.8158 68.2051 50.4971C68.9395 50.1784 69.7044 50.0335 70.5 50.0625C71.3262 50.0625 72.0911 50.2074 72.7949 50.4971C73.4987 50.7868 74.1107 51.1779 74.6309 51.6704C75.151 52.1629 75.5794 52.7568 75.916 53.4521C76.2526 54.1475 76.4056 54.8717 76.375 55.625C76.375 56.4072 76.222 57.1315 75.916 57.7979C75.61 58.4642 75.1969 59.0436 74.6768 59.5361C74.1566 60.0286 73.5293 60.4342 72.7949 60.7529C72.0605 61.0716 71.2956 61.2165 70.5 61.1875C69.6738 61.1875 68.9089 61.0426 68.2051 60.7529C67.5013 60.4632 66.8893 60.0721 66.3691 59.5796C65.849 59.0871 65.4206 58.4932 65.084 57.7979C64.7474 57.1025 64.5944 56.3783 64.625 55.625ZM11.75 55.625C11.75 54.8428 11.903 54.1185 12.209 53.4521C12.515 52.7858 12.9281 52.2064 13.4482 51.7139C13.9684 51.2214 14.5957 50.8158 15.3301 50.4971C16.0645 50.1784 16.8294 50.0335 17.625 50.0625C18.4512 50.0625 19.2161 50.2074 19.9199 50.4971C20.6237 50.7868 21.2357 51.1779 21.7559 51.6704C22.276 52.1629 22.7044 52.7568 23.041 53.4521C23.3776 54.1475 23.5306 54.8717 23.5 55.625C23.5 56.4072 23.347 57.1315 23.041 57.7979C22.735 58.4642 22.3219 59.0436 21.8018 59.5361C21.2816 60.0286 20.6543 60.4342 19.9199 60.7529C19.1855 61.0716 18.4206 61.2165 17.625 61.1875C16.7988 61.1875 16.0339 61.0426 15.3301 60.7529C14.6263 60.4632 14.0143 60.0721 13.4941 59.5796C12.974 59.0871 12.5456 58.4932 12.209 57.7979C11.8724 57.1025 11.7194 56.3783 11.75 55.625ZM29.375 55.625C29.375 54.8428 29.528 54.1185 29.834 53.4521C30.14 52.7858 30.5531 52.2064 31.0732 51.7139C31.5934 51.2214 32.2207 50.8158 32.9551 50.4971C33.6895 50.1784 34.4544 50.0335 35.25 50.0625C36.0762 50.0625 36.8411 50.2074 37.5449 50.4971C38.2487 50.7868 38.8607 51.1779 39.3809 51.6704C39.901 52.1629 40.3294 52.7568 40.666 53.4521C41.0026 54.1475 41.1556 54.8717 41.125 55.625C41.125 56.4072 40.972 57.1315 40.666 57.7979C40.36 58.4642 39.9469 59.0436 39.4268 59.5361C38.9066 60.0286 38.2793 60.4342 37.5449 60.7529C36.8105 61.0716 36.0456 61.2165 35.25 61.1875C34.4238 61.1875 33.6589 61.0426 32.9551 60.7529C32.2513 60.4632 31.6393 60.0721 31.1191 59.5796C30.599 59.0871 30.1706 58.4932 29.834 57.7979C29.4974 57.1025 29.3444 56.3783 29.375 55.625ZM58.75 55.625C58.75 56.4072 58.597 57.1315 58.291 57.7979C57.985 58.4642 57.5719 59.0436 57.0518 59.5361C56.5316 60.0286 55.9043 60.4342 55.1699 60.7529C54.4355 61.0716 53.6706 61.2165 52.875 61.1875C52.0488 61.1875 51.2839 61.0426 50.5801 60.7529C49.8763 60.4632 49.2643 60.0721 48.7441 59.5796C48.224 59.0871 47.7956 58.4932 47.459 57.7979C47.1224 57.1025 46.9694 56.3783 47 55.625C47 54.8428 47.153 54.1185 47.459 53.4521C47.765 52.7858 48.1781 52.2064 48.6982 51.7139C49.2184 51.2214 49.8457 50.8158 50.5801 50.4971C51.3145 50.1784 52.0794 50.0335 52.875 50.0625C53.7012 50.0625 54.4661 50.2074 55.1699 50.4971C55.8737 50.7868 56.4857 51.1779 57.0059 51.6704C57.526 52.1629 57.9544 52.7568 58.291 53.4521C58.6276 54.1475 58.7806 54.8717 58.75 55.625ZM5.875 55.625C5.875 57.1605 6.18099 58.5946 6.79297 59.9272C7.40495 61.2599 8.24642 62.4478 9.31738 63.4907C10.3883 64.5337 11.6276 65.3304 13.0352 65.8809C14.4427 66.4313 15.9727 66.721 17.625 66.75H47V72.3125H17.625C15.2077 72.3125 12.9281 71.8779 10.7861 71.0088C8.64421 70.1396 6.77767 68.9373 5.18652 67.4019C3.59538 65.8664 2.34082 64.0991 1.42285 62.1001C0.504883 60.1011 0.030599 57.9427 0 55.625C0 53.3363 0.458984 51.1779 1.37695 49.1499C2.29492 47.1219 3.56478 45.3547 5.18652 43.8481C6.80827 42.3416 8.6748 41.1538 10.7861 40.2847C12.8975 39.4155 15.1771 38.9665 17.625 38.9375H70.5C72.6725 38.9375 74.738 39.2996 76.6963 40.0239C78.6546 40.7482 80.3988 41.7332 81.9287 42.979C83.4587 44.2248 84.7438 45.7168 85.7842 47.4551C86.8245 49.1934 87.513 51.0765 87.8496 53.1045L81.6533 58.9712C81.8369 58.4207 81.9746 57.8703 82.0664 57.3198C82.1582 56.7694 82.2194 56.2044 82.25 55.625C82.25 54.0895 81.944 52.6554 81.332 51.3228C80.7201 49.9901 79.8786 48.8022 78.8076 47.7593C77.7367 46.7163 76.4974 45.9196 75.0898 45.3691C73.6823 44.8187 72.1523 44.529 70.5 44.5H17.625C16.0033 44.5 14.4886 44.7897 13.0811 45.3691C11.6735 45.9486 10.4189 46.7453 9.31738 47.7593C8.21582 48.7733 7.37435 49.9466 6.79297 51.2793C6.21159 52.612 5.9056 54.0605 5.875 55.625ZM93.1279 63.1431L67.5625 87.3921L55.2158 75.6587L59.3467 71.7476L67.5625 79.4829L88.9971 59.2319L93.1279 63.1431Z" fill="#F0CF1F"/>
</g>
</svg>
