<svg width="51" height="41" viewBox="0 0 51 41" fill="none" xmlns="http://www.w3.org/2000/svg">
<g id="fluent:learning-app-20-regular">
<path id="Vector" d="M15.3002 6.14998H35.7002C36.3765 6.14998 37.0251 6.36596 37.5033 6.75041C37.9815 7.13486 38.2502 7.65628 38.2502 8.19998V18.4951C39.1129 18.5579 39.9666 18.6849 40.8002 18.8743V8.19998C40.8002 7.11259 40.2629 6.06974 39.3064 5.30084C38.35 4.53194 37.0528 4.09998 35.7002 4.09998H15.3002C13.9476 4.09998 12.6504 4.53194 11.694 5.30084C10.7375 6.06974 10.2002 7.11259 10.2002 8.19998V32.8C10.2002 33.8874 10.7375 34.9302 11.694 35.6991C12.6504 36.468 13.9476 36.9 15.3002 36.9H26.1555C25.5061 36.2676 24.9443 35.5802 24.4802 34.85H15.3002C14.6239 34.85 13.9753 34.634 13.4971 34.2495C13.0189 33.8651 12.7502 33.3437 12.7502 32.8H23.478C23.2421 32.1299 23.0842 31.4436 23.0063 30.75H12.7502V8.19998C12.7502 7.65628 13.0189 7.13486 13.4971 6.75041C13.9753 6.36596 14.6239 6.14998 15.3002 6.14998ZM17.8502 8.19998C17.1739 8.19998 16.5253 8.41596 16.0471 8.80041C15.5689 9.18486 15.3002 9.70628 15.3002 10.25V12.3C15.3002 12.8437 15.5689 13.3651 16.0471 13.7495C16.5253 14.134 17.1739 14.35 17.8502 14.35H33.1502C33.8265 14.35 34.4751 14.134 34.9533 13.7495C35.4315 13.3651 35.7002 12.8437 35.7002 12.3V10.25C35.7002 9.70628 35.4315 9.18486 34.9533 8.80041C34.4751 8.41596 33.8265 8.19998 33.1502 8.19998H17.8502ZM33.1502 10.25V12.3H17.8502V10.25H33.1502ZM48.4502 29.725C48.4502 32.1716 47.2412 34.518 45.0892 36.248C42.9373 37.9781 40.0186 38.95 36.9752 38.95C33.9318 38.95 31.0131 37.9781 28.8611 36.248C26.7092 34.518 25.5002 32.1716 25.5002 29.725C25.5002 27.2784 26.7092 24.9319 28.8611 23.2019C31.0131 21.4719 33.9318 20.5 36.9752 20.5C40.0186 20.5 42.9373 21.4719 45.0892 23.2019C47.2412 24.9319 48.4502 27.2784 48.4502 29.725ZM35.7512 25.6947C35.5858 25.6034 35.3937 25.5484 35.1938 25.5351C34.9939 25.5218 34.7931 25.5506 34.6113 25.6188C34.463 25.6713 34.3287 25.7465 34.2161 25.8402C33.9785 26.0359 33.8458 26.2986 33.8463 26.5721V32.8758C33.8448 33.0117 33.8766 33.1465 33.9401 33.2724C34.0036 33.3984 34.0974 33.513 34.2161 33.6097C34.3325 33.7028 34.4679 33.779 34.6164 33.8352C34.8752 33.9305 35.1687 33.9451 35.4401 33.8762C35.5576 33.8451 35.6692 33.8009 35.7716 33.745L41.6264 30.5327C41.8045 30.4383 41.948 30.3074 42.042 30.1534C42.1389 29.9984 42.1887 29.827 42.1874 29.6535C42.1861 29.48 42.1336 29.3092 42.0344 29.1551C41.9347 29.0034 41.788 28.8749 41.6085 28.782L35.7512 25.6947Z" fill="#E9ED32"/>
</g>
</svg>
