<svg width="25" height="20" viewBox="0 0 25 20" fill="none" xmlns="http://www.w3.org/2000/svg">
<g id="Frame" clip-path="url(#clip0_180_153)">
<path id="Vector" d="M15.6603 0.272629C13.3961 1.09081 11.981 3.09082 12.1697 5.36354L12.264 6.18172L11.3206 6.09081C8.01876 5.72717 5.18857 4.27262 2.73574 1.9999L1.50933 0.818089L1.2263 1.63627C0.565919 3.54536 1.03763 5.54537 2.35838 6.81809C3.1131 7.54537 2.92441 7.63627 1.69799 7.18173C1.2263 6.99991 0.848944 6.90899 0.848944 6.9999C0.754604 7.09081 1.13197 8.72717 1.50933 9.36354C1.98103 10.2726 2.9244 11.0908 3.96214 11.6363L4.81122 11.9999H3.77348C2.73574 11.9999 2.73574 11.9999 2.83008 12.3635C3.20744 13.5453 4.62254 14.7272 6.22631 15.2726L7.35837 15.6363L6.41498 16.1817C4.99988 16.9999 3.30176 17.4544 1.60365 17.4544C0.754593 17.4544 0.0942383 17.5454 0.0942383 17.6363C0.0942383 17.8181 2.26403 18.8181 3.58479 19.1817C7.45271 20.3635 11.981 19.8181 15.4716 17.909C17.9244 16.5454 20.3772 13.7272 21.5093 11.0908C22.1697 9.63626 22.7357 7.09082 22.7357 5.81809C22.7357 4.99991 22.8301 4.90899 23.7735 3.90899C24.3395 3.36354 24.9056 2.72717 24.9999 2.54536C25.1886 2.18172 25.1886 2.18172 24.2452 2.54536C22.7357 3.09081 22.4527 2.99991 23.2074 2.18173C23.7735 1.63627 24.4339 0.636265 24.4339 0.272629C24.4339 0.18172 24.1508 0.27264 23.8678 0.454458C23.5848 0.636277 22.8301 0.908987 22.2641 1.09081L21.3207 1.36355L20.4716 0.818089C19.9999 0.545362 19.3395 0.181731 18.9622 -8.70451e-05C17.9244 -0.0909961 16.5093 -9.81577e-05 15.6603 0.272629Z" fill="#8D98A1"/>
</g>
<defs>
<clipPath id="clip0_180_153">
<rect width="25" height="20" fill="white"/>
</clipPath>
</defs>
</svg>
