<svg width="94" height="89" viewBox="0 0 94 89" fill="none" xmlns="http://www.w3.org/2000/svg">
<g id="ion:library-sharp">
<rect width="94" height="89" fill="white"/>
<path id="Vector" d="M15.4219 83.4375H5.14062C4.55632 83.4375 3.99595 83.2177 3.58278 82.8265C3.16961 82.4354 2.9375 81.9048 2.9375 81.3516V15.9922C2.9375 15.439 3.16961 14.9084 3.58278 14.5172C3.99595 14.126 4.55632 13.9062 5.14062 13.9062H15.4219C16.0062 13.9062 16.5666 14.126 16.9797 14.5172C17.3929 14.9084 17.625 15.439 17.625 15.9922V81.3516C17.625 81.9048 17.3929 82.4354 16.9797 82.8265C16.5666 83.2177 16.0062 83.4375 15.4219 83.4375ZM44.0625 36.1562V27.1172C44.0625 26.564 43.8304 26.0334 43.4172 25.6422C43.004 25.251 42.4437 25.0312 41.8594 25.0312H22.7656C22.1813 25.0312 21.6209 25.251 21.2078 25.6422C20.7946 26.0334 20.5625 26.564 20.5625 27.1172V36.1562H44.0625ZM20.5625 72.3125V81.3516C20.5625 81.9048 20.7946 82.4354 21.2078 82.8265C21.6209 83.2177 22.1813 83.4375 22.7656 83.4375H41.8594C42.4437 83.4375 43.004 83.2177 43.4172 82.8265C43.8304 82.4354 44.0625 81.9048 44.0625 81.3516V72.3125H20.5625ZM20.5625 41.7188H44.0625V66.75H20.5625V41.7188ZM62.4219 83.4375H49.2031C48.6188 83.4375 48.0584 83.2177 47.6453 82.8265C47.2321 82.4354 47 81.9048 47 81.3516V7.64844C47 7.09521 47.2321 6.56465 47.6453 6.17346C48.0584 5.78227 48.6188 5.5625 49.2031 5.5625H62.4219C63.0062 5.5625 63.5666 5.78227 63.9797 6.17346C64.3929 6.56465 64.625 7.09521 64.625 7.64844V81.3516C64.625 81.9048 64.3929 82.4354 63.9797 82.8265C63.5666 83.2177 63.0062 83.4375 62.4219 83.4375ZM67.7461 17.5045L73.2539 81.4437C73.2783 81.7241 73.3624 81.9969 73.5011 82.2457C73.6398 82.4945 73.8302 82.7142 74.0609 82.8915C74.2916 83.0688 74.5578 83.2002 74.8435 83.2776C75.1291 83.355 75.4284 83.3768 75.7232 83.3419L88.9714 81.7774C89.5354 81.7107 90.0504 81.44 90.4086 81.0221C90.7669 80.6043 90.9406 80.0714 90.8936 79.5351L85.3711 15.8549C85.3468 15.5783 85.2644 15.3091 85.1288 15.063C84.9932 14.817 84.8071 14.599 84.5814 14.4219C84.3557 14.2448 84.095 14.1121 83.8144 14.0316C83.5339 13.9511 83.2392 13.9245 82.9476 13.9532L69.705 15.2586C69.1336 15.3171 68.609 15.5847 68.243 16.0042C67.877 16.4238 67.6987 16.9622 67.7461 17.5045Z" fill="#16009C" fill-opacity="0.72"/>
</g>
</svg>
