<svg width="94" height="89" viewBox="0 0 94 89" fill="none" xmlns="http://www.w3.org/2000/svg">
<g id="logos:amazon-connect" clip-path="url(#clip0_332_159)">
<path id="Vector" d="M90.6123 27.0874C88.4375 21.7717 85.3226 17.0054 81.3555 12.9217C73.2576 4.58634 62.4803 0 50.9957 0H50.9069C43.2374 0.0155277 35.5342 2.30188 28.6307 6.61137C22.1135 10.6792 16.6799 16.398 13.3289 22.7147C13.1999 22.9714 13.1734 23.27 13.2551 23.5466C13.3369 23.8231 13.5204 24.0557 13.7663 24.1945C14.0123 24.3332 14.3011 24.3672 14.571 24.289C14.8409 24.2108 15.0704 24.0268 15.2104 23.7763C18.3821 17.7966 23.5426 12.3725 29.7407 8.50348C36.3112 4.40228 43.6318 2.22651 50.9116 2.21174H50.9954C61.9074 2.21174 72.1479 6.56934 79.8409 14.4873C87.5885 22.4628 91.8553 33.1019 91.8553 44.4447C91.8553 55.7254 87.5962 66.3307 79.8629 74.3074C72.1292 82.2841 61.8469 86.6773 50.9094 86.6773C43.6568 86.6773 36.5311 84.6958 30.3029 80.9476C24.2456 77.2969 19.1926 72.1112 15.6227 65.882C15.5522 65.7549 15.4578 65.6436 15.3452 65.5544C15.2326 65.4652 15.1039 65.4 14.9667 65.3626C14.8294 65.3251 14.6863 65.3161 14.5457 65.3362C14.4051 65.3562 14.2697 65.4048 14.1474 65.4793C14.0251 65.5537 13.9184 65.6524 13.8335 65.7697C13.7485 65.887 13.6869 66.0206 13.6524 66.1626C13.6179 66.3046 13.611 66.4523 13.6322 66.5971C13.6535 66.7419 13.7024 66.8809 13.7761 67.006C17.5322 73.5605 22.849 79.017 29.2226 82.8582C35.778 86.8034 43.2771 88.889 50.9094 88.889C62.4193 88.889 73.2403 84.266 81.3787 75.8716C89.5181 67.4768 94 56.3162 94 44.4447C94 38.4211 92.8606 32.5816 90.6123 27.0874ZM5.00403 31.8646H18.5411C18.8255 31.8646 19.0982 31.7481 19.2993 31.5407C19.5004 31.3334 19.6133 31.0521 19.6133 30.7588C19.6133 30.4655 19.5004 30.1842 19.2993 29.9768C19.0982 29.7694 18.8255 29.6529 18.5411 29.6529H5.00403C4.71967 29.6529 4.44695 29.7694 4.24588 29.9768C4.04481 30.1842 3.93184 30.4655 3.93184 30.7588C3.93184 31.0521 4.04481 31.3334 4.24588 31.5407C4.44695 31.7481 4.71967 31.8646 5.00403 31.8646ZM13.9392 45.0897C13.9392 44.7964 13.8262 44.5151 13.6251 44.3077C13.4241 44.1003 13.1513 43.9838 12.867 43.9838H1.07219C0.787826 43.9838 0.515111 44.1003 0.314036 44.3077C0.112962 44.5151 0 44.7964 0 45.0897C0 45.383 0.112962 45.6642 0.314036 45.8716C0.515111 46.079 0.787826 46.1955 1.07219 46.1955H12.867C13.1513 46.1955 13.4241 46.079 13.6251 45.8716C13.8262 45.6642 13.9392 45.383 13.9392 45.0897ZM18.496 59.4206C18.496 59.1273 18.383 58.846 18.1819 58.6386C17.9809 58.4312 17.7081 58.3147 17.4238 58.3147H2.94925C2.66489 58.3147 2.39217 58.4312 2.1911 58.6386C1.99002 58.846 1.87706 59.1273 1.87706 59.4206C1.87706 59.7139 1.99002 59.9951 2.1911 60.2025C2.39217 60.4099 2.66489 60.5264 2.94925 60.5264H17.4245C17.7089 60.5264 17.9816 60.4099 18.1827 60.2025C18.3837 59.9951 18.4967 59.7139 18.4967 59.4206M28.0509 36.2275C28.1901 36.2042 28.3235 36.1528 28.4434 36.0762C28.5633 35.9996 28.6674 35.8994 28.7497 35.7813C28.832 35.6631 28.8908 35.5294 28.9229 35.3877C28.955 35.2461 28.9596 35.0993 28.9366 34.9558C28.1431 30.0066 28.9465 25.6051 31.2609 22.225C33.2951 19.2539 36.4525 17.1505 40.1505 16.3029C47.4513 14.6297 56.2289 18.0363 58.8796 27.7858C58.9215 27.94 58.9954 28.0829 59.0961 28.2047C59.1968 28.3265 59.322 28.4243 59.4629 28.4914C59.6039 28.5584 59.7573 28.593 59.9125 28.5929C60.0677 28.5928 60.2211 28.5579 60.362 28.4906C63.3244 27.0783 66.342 26.9784 68.8601 28.2096C71.426 29.4643 73.2903 31.9567 74.1087 35.2281C74.1599 35.4328 74.2669 35.6181 74.417 35.762C74.5672 35.9059 74.7541 36.0024 74.9558 36.0401C81.9434 37.3444 84.8842 42.8533 84.6984 47.7339C84.5993 50.3308 83.638 52.7861 81.9908 54.6468C80.1614 56.7138 77.5603 57.981 74.4667 58.3143H62.6708C62.3996 58.3144 62.1385 58.4205 61.9401 58.6112L43.9626 75.8761V59.2823C43.9626 58.989 43.8497 58.7078 43.6486 58.5004C43.4475 58.293 43.1748 58.1765 42.8904 58.1765H28.4655C25.5845 57.9515 23.1218 56.7373 21.342 54.6634C19.7165 52.7683 18.7578 50.2668 18.6432 47.6192C18.5294 44.9764 19.2777 42.428 20.7505 40.4439C22.4091 38.2094 24.9335 36.7517 28.0509 36.2275ZM16.501 47.718C16.7471 53.4102 20.5596 59.8019 28.3483 60.3852C28.374 60.3871 28.3997 60.3882 28.4255 60.3882H41.8175V78.4169C41.8176 78.6323 41.8786 78.8429 41.9931 79.023C42.1075 79.2031 42.2705 79.3448 42.4619 79.4308C42.6533 79.5167 42.8649 79.5432 43.0707 79.507C43.2765 79.4707 43.4675 79.3733 43.6204 79.2267L63.0924 60.5264H74.5211C74.5571 60.5264 74.593 60.5245 74.629 60.5208C82.763 59.6743 86.6236 53.5322 86.841 47.8206C86.9614 44.6507 86.0016 41.549 84.1377 39.0861C82.1979 36.5237 79.3947 34.7748 76.0005 34.001C74.9367 30.4126 72.7461 27.662 69.7781 26.2107C67.0018 24.8537 63.7764 24.7878 60.5856 26.0016C59.0823 21.4937 56.2502 18.0003 52.3407 15.853C48.5216 13.7556 44.0273 13.1489 39.6853 14.1438C35.4655 15.1111 31.8513 17.5281 29.509 20.9495C27.0334 24.564 26.0604 29.1454 26.6714 34.2521C19.3291 35.9708 16.2605 42.147 16.501 47.718ZM34.1943 41.8648C35.894 41.8648 37.2772 43.2911 37.2772 45.0442C37.2772 46.7973 35.894 48.224 34.1943 48.224C32.4943 48.224 31.1114 46.7973 31.1114 45.0442C31.1114 43.2911 32.4946 41.8648 34.1943 41.8648ZM46.6949 32.3676C48.3946 32.3676 49.7774 33.7939 49.7774 35.547C49.7774 37.3005 48.3946 38.7267 46.6949 38.7267C44.9948 38.7267 43.612 37.3005 43.612 35.547C43.612 33.7939 44.9952 32.3676 46.6949 32.3676ZM57.1061 50.7618C57.1061 52.5153 55.7233 53.9416 54.0232 53.9416C52.3231 53.9416 50.9407 52.5153 50.9407 50.7618C50.9407 49.0087 52.3235 47.5824 54.0232 47.5824C55.7233 47.5824 57.1061 49.0087 57.1061 50.7618ZM65.854 37.8091C67.5537 37.8091 68.9365 39.2354 68.9365 40.9885C68.9365 42.7416 67.5537 44.1679 65.854 44.1679C64.1539 44.1679 62.7711 42.7416 62.7711 40.9885C62.7711 39.2354 64.1539 37.8091 65.854 37.8091ZM34.1943 50.4357C37.0768 50.4357 39.4216 48.0172 39.4216 45.0442C39.4216 44.2868 39.2685 43.5653 38.9938 42.9105L43.1174 39.4728C43.6981 40.0385 44.3972 40.4588 45.1606 40.7012C45.924 40.9436 46.7313 41.0016 47.5199 40.8707L50.3267 46.9541C49.8412 47.4537 49.4561 48.0472 49.1935 48.7006C48.9309 49.354 48.7959 50.0545 48.7963 50.7618C48.7963 53.7348 51.1411 56.1533 54.0232 56.1533C56.9056 56.1533 59.2505 53.7348 59.2505 50.7618C59.2505 49.8574 59.0324 49.0045 58.649 48.255L62.5295 45.1461C63.4643 45.9446 64.6402 46.3809 65.854 46.3796C68.736 46.3796 71.0809 43.9615 71.0809 40.9885C71.0809 38.0155 68.736 35.597 65.854 35.597C62.9716 35.597 60.6267 38.0155 60.6267 40.9885C60.6267 41.8626 60.8305 42.6878 61.19 43.4187L57.2809 46.55C56.3568 45.7859 55.2076 45.3698 54.0232 45.3707C53.3786 45.3705 52.7396 45.4939 52.1388 45.7346L49.5277 40.0746C50.9671 39.113 51.9218 37.4436 51.9218 35.547C51.9218 32.5744 49.5773 30.1558 46.6949 30.1558C43.8124 30.1558 41.4676 32.5744 41.4676 35.547C41.4676 36.2953 41.6163 37.0085 41.8847 37.6565L37.7531 41.1006C36.788 40.1697 35.5157 39.6522 34.1943 39.6531C31.3119 39.6531 28.9671 42.0712 28.9671 45.0442C28.9671 48.0172 31.3119 50.4357 34.1943 50.4357Z" fill="#26BF95"/>
</g>
<defs>
<clipPath id="clip0_332_159">
<rect width="94" height="89" fill="white"/>
</clipPath>
</defs>
</svg>
