<svg width="94" height="89" viewBox="0 0 94 89" fill="none" xmlns="http://www.w3.org/2000/svg">
<g id="ph:calendar-duotone">
<g id="Group">
<path id="Vector" opacity="0.2" d="M79.3125 16.6875V30.5938H14.6875V16.6875C14.6875 15.9499 14.997 15.2424 15.5479 14.7209C16.0988 14.1993 16.8459 13.9062 17.625 13.9063H76.375C77.1541 13.9063 77.9012 14.1993 78.4521 14.7209C79.003 15.2424 79.3125 15.9499 79.3125 16.6875Z" fill="#E71B1B" fill-opacity="0.8"/>
<path id="Vector_2" d="M76.375 11.125H67.5625V8.34375C67.5625 7.60612 67.253 6.89869 66.7021 6.37711C66.1512 5.85552 65.4041 5.5625 64.625 5.5625C63.8459 5.5625 63.0988 5.85552 62.5479 6.37711C61.997 6.89869 61.6875 7.60612 61.6875 8.34375V11.125H32.3125V8.34375C32.3125 7.60612 32.003 6.89869 31.4521 6.37711C30.9012 5.85552 30.1541 5.5625 29.375 5.5625C28.5959 5.5625 27.8488 5.85552 27.2979 6.37711C26.747 6.89869 26.4375 7.60612 26.4375 8.34375V11.125H17.625C16.0669 11.125 14.5725 11.711 13.4707 12.7542C12.369 13.7974 11.75 15.2122 11.75 16.6875V72.3125C11.75 73.7878 12.369 75.2026 13.4707 76.2458C14.5725 77.289 16.0669 77.875 17.625 77.875H76.375C77.9331 77.875 79.4275 77.289 80.5293 76.2458C81.631 75.2026 82.25 73.7878 82.25 72.3125V16.6875C82.25 15.2122 81.631 13.7974 80.5293 12.7542C79.4275 11.711 77.9331 11.125 76.375 11.125ZM26.4375 16.6875V19.4688C26.4375 20.2064 26.747 20.9138 27.2979 21.4354C27.8488 21.957 28.5959 22.25 29.375 22.25C30.1541 22.25 30.9012 21.957 31.4521 21.4354C32.003 20.9138 32.3125 20.2064 32.3125 19.4688V16.6875H61.6875V19.4688C61.6875 20.2064 61.997 20.9138 62.5479 21.4354C63.0988 21.957 63.8459 22.25 64.625 22.25C65.4041 22.25 66.1512 21.957 66.7021 21.4354C67.253 20.9138 67.5625 20.2064 67.5625 19.4688V16.6875H76.375V27.8125H17.625V16.6875H26.4375ZM76.375 72.3125H17.625V33.375H76.375V72.3125ZM41.125 41.7188V63.9688C41.125 64.7064 40.8155 65.4138 40.2646 65.9354C39.7137 66.457 38.9666 66.75 38.1875 66.75C37.4084 66.75 36.6613 66.457 36.1104 65.9354C35.5595 65.4138 35.25 64.7064 35.25 63.9688V46.2174L33.627 46.9892C32.9298 47.3193 32.1226 47.3736 31.383 47.1402C30.6434 46.9068 30.0321 46.4048 29.6834 45.7446C29.3348 45.0844 29.2774 44.3202 29.524 43.6199C29.7705 42.9197 30.3007 42.3409 30.998 42.0108L36.873 39.2295C37.321 39.0173 37.8189 38.917 38.3194 38.9383C38.8198 38.9596 39.3062 39.1017 39.7323 39.3512C40.1584 39.6006 40.5101 39.9491 40.7538 40.3635C40.9976 40.7779 41.1254 41.2444 41.125 41.7188ZM62.8478 52.3049L55.8125 61.1875H61.6875C62.4666 61.1875 63.2137 61.4805 63.7646 62.0021C64.3155 62.5237 64.625 63.2311 64.625 63.9688C64.625 64.7064 64.3155 65.4138 63.7646 65.9354C63.2137 66.457 62.4666 66.75 61.6875 66.75H49.9375C49.392 66.75 48.8572 66.6062 48.3932 66.3346C47.9291 66.0631 47.5541 65.6745 47.3101 65.2126C47.0662 64.7506 46.9629 64.2334 47.0119 63.719C47.0609 63.2046 47.2602 62.7132 47.5875 62.3L58.1552 48.9604C58.3955 48.6575 58.568 48.3112 58.6619 47.9428C58.7558 47.5745 58.7693 47.1918 58.7014 46.8184C58.6335 46.4449 58.4858 46.0886 58.2672 45.7711C58.0487 45.4537 57.7639 45.1819 57.4304 44.9724C57.0969 44.7629 56.7217 44.6202 56.3278 44.5529C55.9339 44.4857 55.5297 44.4953 55.1399 44.5813C54.7501 44.6673 54.383 44.8278 54.0611 45.0529C53.7392 45.2781 53.4693 45.5632 53.2679 45.8906C53.0807 46.217 52.8264 46.5046 52.5199 46.7364C52.2134 46.9682 51.861 47.1396 51.4834 47.2403C51.1059 47.3411 50.7108 47.3693 50.3216 47.3231C49.9324 47.277 49.5568 47.1575 49.2172 46.9718C48.8775 46.786 48.5806 46.5377 48.3439 46.2415C48.1072 45.9453 47.9356 45.6073 47.8391 45.2473C47.7427 44.8873 47.7233 44.5126 47.7823 44.1455C47.8412 43.7783 47.9773 43.426 48.1823 43.1094C49.1527 41.5195 50.6499 40.2771 52.4418 39.5748C54.2337 38.8724 56.2203 38.7493 58.0936 39.2246C59.9669 39.6999 61.6222 40.747 62.8031 42.2037C63.984 43.6603 64.6244 45.445 64.625 47.2812C64.6312 49.0951 64.0067 50.8605 62.8478 52.3049Z" fill="#E71B1B" fill-opacity="0.8"/>
</g>
</g>
</svg>
