<svg width="1440" height="840" viewBox="0 0 1440 840" fill="none" xmlns="http://www.w3.org/2000/svg">
<rect width="1440" height="840" fill="#1E1E1E" style="fill:#1E1E1E;fill:color(display-p3 0.1176 0.1176 0.1176);fill-opacity:1;"/>
<g clip-path="url(#clip0_0_1)">
<rect width="1440" height="7620" transform="translate(0 -6780)" fill="white" style="fill:white;fill-opacity:1;"/>
<g filter="url(#filter0_f_0_1)">
<path d="M841.692 140.264C892.485 110.834 954.63 108.754 1007.28 134.721C1059.62 160.539 1121.37 158.64 1172.03 129.657L1348.5 28.6915C1438.27 -22.6717 1552.76 12.1646 1598.71 104.824L1637.66 183.355C1644.51 197.171 1653.47 209.836 1664.22 220.893C1681.31 238.466 1693.78 259.996 1700.52 283.562L1784.69 577.772C1803.8 644.604 1782.66 716.469 1730.4 762.299L1659.87 824.145C1624.39 855.255 1578.09 871.162 1530.99 868.429L1272 853.403L996 872.694L462.829 898.288C452.96 898.762 443.068 898.421 433.255 897.268L-133.022 830.768C-253.49 816.621 -325.623 689.637 -276.087 578.919L-182.267 369.223C-169.954 341.703 -150.914 317.723 -126.901 299.492L115.091 115.767C162.288 79.9348 224.117 69.6752 280.358 88.3441L419 134.366L570.826 206.843C624.342 232.39 687.015 229.888 738.324 200.159L841.692 140.264Z" fill="url(#paint0_linear_0_1)" style=""/>
</g>
<path d="M475.83 762.409C472.932 762.409 470.37 762.011 468.145 761.216C465.92 760.43 464.049 759.27 462.534 757.736C461.019 756.202 459.873 754.322 459.097 752.097C458.32 749.871 457.932 747.324 457.932 744.455C457.932 741.68 458.325 739.199 459.111 737.011C459.906 734.824 461.057 732.968 462.562 731.443C464.078 729.909 465.915 728.74 468.074 727.935C470.242 727.13 472.695 726.727 475.432 726.727C478.093 726.727 480.422 727.163 482.42 728.034C484.428 728.896 486.104 730.065 487.449 731.543C488.803 733.01 489.816 734.663 490.489 736.5C491.17 738.337 491.511 740.231 491.511 742.182C491.511 743.555 491.445 744.947 491.312 746.358C491.18 747.769 490.901 749.066 490.474 750.25C490.048 751.424 489.39 752.371 488.5 753.091C487.619 753.811 486.426 754.17 484.92 754.17C484.258 754.17 483.528 754.066 482.733 753.858C481.938 753.65 481.232 753.304 480.616 752.821C480.001 752.338 479.636 751.689 479.523 750.875H479.352C479.125 751.424 478.775 751.945 478.301 752.438C477.837 752.93 477.226 753.323 476.469 753.616C475.721 753.91 474.807 754.038 473.727 754C472.496 753.953 471.412 753.678 470.474 753.176C469.537 752.665 468.751 751.973 468.116 751.102C467.491 750.222 467.018 749.204 466.696 748.048C466.384 746.884 466.227 745.629 466.227 744.284C466.227 743.006 466.417 741.836 466.795 740.776C467.174 739.715 467.7 738.787 468.372 737.991C469.054 737.196 469.849 736.562 470.759 736.088C471.677 735.605 472.667 735.307 473.727 735.193C474.674 735.098 475.536 735.141 476.312 735.321C477.089 735.491 477.728 735.752 478.23 736.102C478.732 736.443 479.049 736.822 479.182 737.239H479.352V735.648H482.364V748.489C482.364 749.284 482.586 749.985 483.031 750.591C483.476 751.197 484.125 751.5 484.977 751.5C485.943 751.5 486.682 751.169 487.193 750.506C487.714 749.843 488.069 748.82 488.259 747.438C488.457 746.055 488.557 744.284 488.557 742.125C488.557 740.856 488.382 739.606 488.031 738.375C487.69 737.134 487.17 735.974 486.469 734.895C485.777 733.815 484.902 732.864 483.841 732.04C482.78 731.216 481.535 730.572 480.105 730.108C478.685 729.634 477.07 729.398 475.261 729.398C473.036 729.398 471.043 729.743 469.281 730.435C467.529 731.116 466.038 732.116 464.807 733.432C463.585 734.739 462.652 736.33 462.009 738.205C461.374 740.07 461.057 742.191 461.057 744.568C461.057 746.983 461.374 749.128 462.009 751.003C462.652 752.878 463.599 754.459 464.849 755.747C466.109 757.035 467.667 758.015 469.523 758.688C471.379 759.35 473.519 759.682 475.943 759.682C476.985 759.682 478.012 759.582 479.026 759.384C480.039 759.185 480.934 758.967 481.71 758.73C482.487 758.493 483.045 758.318 483.386 758.205L484.182 760.818C483.595 761.064 482.828 761.311 481.881 761.557C480.943 761.803 479.939 762.007 478.869 762.168C477.809 762.329 476.795 762.409 475.83 762.409ZM474.182 751.102C475.451 751.102 476.478 750.847 477.264 750.335C478.05 749.824 478.623 749.052 478.983 748.02C479.343 746.988 479.523 745.686 479.523 744.114C479.523 742.523 479.324 741.282 478.926 740.392C478.528 739.502 477.941 738.877 477.165 738.517C476.388 738.157 475.432 737.977 474.295 737.977C473.216 737.977 472.293 738.261 471.526 738.83C470.768 739.388 470.186 740.136 469.778 741.074C469.381 742.002 469.182 743.015 469.182 744.114C469.182 745.326 469.343 746.467 469.665 747.537C469.987 748.598 470.512 749.459 471.241 750.122C471.971 750.776 472.951 751.102 474.182 751.102ZM507.722 759V756.443L517.325 745.932C518.451 744.701 519.379 743.631 520.109 742.722C520.838 741.803 521.378 740.941 521.728 740.136C522.088 739.322 522.268 738.47 522.268 737.58C522.268 736.557 522.022 735.671 521.529 734.923C521.046 734.175 520.383 733.598 519.54 733.19C518.698 732.783 517.751 732.58 516.7 732.58C515.582 732.58 514.607 732.812 513.773 733.276C512.95 733.73 512.31 734.369 511.856 735.193C511.411 736.017 511.188 736.983 511.188 738.091H507.836C507.836 736.386 508.229 734.89 509.015 733.602C509.801 732.314 510.871 731.311 512.225 730.591C513.589 729.871 515.118 729.511 516.813 729.511C518.518 729.511 520.028 729.871 521.344 730.591C522.661 731.311 523.693 732.281 524.441 733.503C525.189 734.724 525.563 736.083 525.563 737.58C525.563 738.65 525.369 739.696 524.981 740.719C524.602 741.732 523.939 742.864 522.992 744.114C522.055 745.354 520.753 746.869 519.086 748.659L512.552 755.648V755.875H526.075V759H507.722ZM541.43 759.398C539.29 759.398 537.467 758.815 535.961 757.651C534.455 756.476 533.305 754.777 532.509 752.551C531.714 750.316 531.316 747.617 531.316 744.455C531.316 741.311 531.714 738.626 532.509 736.401C533.314 734.166 534.469 732.461 535.975 731.287C537.49 730.103 539.308 729.511 541.43 729.511C543.551 729.511 545.364 730.103 546.87 731.287C548.385 732.461 549.54 734.166 550.336 736.401C551.141 738.626 551.543 741.311 551.543 744.455C551.543 747.617 551.146 750.316 550.35 752.551C549.555 754.777 548.404 756.476 546.898 757.651C545.393 758.815 543.57 759.398 541.43 759.398ZM541.43 756.273C543.551 756.273 545.199 755.25 546.373 753.205C547.547 751.159 548.134 748.242 548.134 744.455C548.134 741.936 547.864 739.791 547.325 738.02C546.794 736.249 546.027 734.9 545.023 733.972C544.029 733.044 542.831 732.58 541.43 732.58C539.327 732.58 537.684 733.616 536.501 735.69C535.317 737.755 534.725 740.676 534.725 744.455C534.725 746.973 534.99 749.114 535.521 750.875C536.051 752.636 536.813 753.976 537.808 754.895C538.811 755.813 540.019 756.273 541.43 756.273ZM556.941 759V756.443L566.543 745.932C567.67 744.701 568.598 743.631 569.327 742.722C570.057 741.803 570.596 740.941 570.947 740.136C571.307 739.322 571.487 738.47 571.487 737.58C571.487 736.557 571.24 735.671 570.748 734.923C570.265 734.175 569.602 733.598 568.759 733.19C567.916 732.783 566.969 732.58 565.918 732.58C564.801 732.58 563.826 732.812 562.992 733.276C562.168 733.73 561.529 734.369 561.075 735.193C560.629 736.017 560.407 736.983 560.407 738.091H557.055C557.055 736.386 557.448 734.89 558.234 733.602C559.02 732.314 560.09 731.311 561.444 730.591C562.808 729.871 564.337 729.511 566.032 729.511C567.737 729.511 569.247 729.871 570.563 730.591C571.879 731.311 572.912 732.281 573.66 733.503C574.408 734.724 574.782 736.083 574.782 737.58C574.782 738.65 574.588 739.696 574.2 740.719C573.821 741.732 573.158 742.864 572.211 744.114C571.273 745.354 569.971 746.869 568.305 748.659L561.771 755.648V755.875H575.293V759H556.941ZM590.989 759.398C589.114 759.398 587.443 759.076 585.975 758.432C584.517 757.788 583.357 756.893 582.495 755.747C581.643 754.592 581.179 753.252 581.103 751.727H584.683C584.758 752.665 585.08 753.474 585.648 754.156C586.217 754.829 586.96 755.349 587.879 755.719C588.797 756.088 589.815 756.273 590.933 756.273C592.183 756.273 593.29 756.055 594.256 755.619C595.222 755.184 595.98 754.578 596.529 753.801C597.078 753.025 597.353 752.125 597.353 751.102C597.353 750.032 597.088 749.09 596.558 748.276C596.027 747.452 595.251 746.808 594.228 746.344C593.205 745.88 591.955 745.648 590.478 745.648H588.148V742.523H590.478C591.633 742.523 592.647 742.314 593.518 741.898C594.398 741.481 595.085 740.894 595.577 740.136C596.079 739.379 596.33 738.489 596.33 737.466C596.33 736.481 596.112 735.624 595.677 734.895C595.241 734.166 594.626 733.598 593.83 733.19C593.044 732.783 592.116 732.58 591.046 732.58C590.042 732.58 589.095 732.764 588.205 733.134C587.325 733.493 586.605 734.019 586.046 734.71C585.487 735.392 585.184 736.216 585.137 737.182H581.728C581.785 735.657 582.244 734.322 583.106 733.176C583.968 732.021 585.094 731.121 586.487 730.477C587.888 729.833 589.427 729.511 591.103 729.511C592.902 729.511 594.446 729.876 595.734 730.605C597.022 731.325 598.011 732.277 598.702 733.46C599.394 734.644 599.739 735.922 599.739 737.295C599.739 738.934 599.308 740.33 598.447 741.486C597.594 742.641 596.434 743.441 594.967 743.886V744.114C596.804 744.417 598.238 745.198 599.271 746.457C600.303 747.707 600.819 749.256 600.819 751.102C600.819 752.684 600.388 754.104 599.526 755.364C598.674 756.614 597.509 757.598 596.032 758.318C594.555 759.038 592.874 759.398 590.989 759.398ZM619.583 759H615.89L626.572 729.909H630.208L640.89 759H637.197L628.504 734.511H628.276L619.583 759ZM620.947 747.636H635.833V750.761H620.947V747.636ZM648.319 729.909V759H644.967V729.909H648.319ZM657.811 729.909V759H654.459V729.909H657.811ZM675.201 759V737.182H678.44V740.477H678.667C679.065 739.398 679.784 738.522 680.826 737.849C681.868 737.177 683.042 736.841 684.349 736.841C684.595 736.841 684.903 736.846 685.272 736.855C685.641 736.865 685.921 736.879 686.11 736.898V740.307C685.996 740.278 685.736 740.236 685.329 740.179C684.931 740.113 684.51 740.08 684.065 740.08C683.004 740.08 682.057 740.302 681.224 740.747C680.4 741.183 679.746 741.789 679.263 742.565C678.79 743.332 678.553 744.208 678.553 745.193V759H675.201ZM690.084 759V737.182H693.436V759H690.084ZM691.788 733.545C691.135 733.545 690.571 733.323 690.098 732.878C689.634 732.433 689.402 731.898 689.402 731.273C689.402 730.648 689.634 730.113 690.098 729.668C690.571 729.223 691.135 729 691.788 729C692.442 729 693 729.223 693.464 729.668C693.938 730.113 694.175 730.648 694.175 731.273C694.175 731.898 693.938 732.433 693.464 732.878C693 733.323 692.442 733.545 691.788 733.545ZM708.383 767.636C706.763 767.636 705.371 767.428 704.207 767.011C703.042 766.604 702.071 766.064 701.295 765.392C700.528 764.729 699.917 764.019 699.462 763.261L702.133 761.386C702.436 761.784 702.819 762.239 703.283 762.75C703.747 763.271 704.382 763.721 705.187 764.099C706.001 764.488 707.067 764.682 708.383 764.682C710.144 764.682 711.598 764.256 712.744 763.403C713.889 762.551 714.462 761.216 714.462 759.398V754.966H714.178C713.932 755.364 713.582 755.856 713.127 756.443C712.682 757.021 712.038 757.537 711.195 757.991C710.362 758.437 709.235 758.659 707.815 758.659C706.053 758.659 704.472 758.242 703.07 757.409C701.678 756.576 700.575 755.364 699.761 753.773C698.956 752.182 698.553 750.25 698.553 747.977C698.553 745.742 698.946 743.796 699.732 742.139C700.518 740.473 701.612 739.185 703.013 738.276C704.415 737.357 706.034 736.898 707.871 736.898C709.292 736.898 710.419 737.134 711.252 737.608C712.095 738.072 712.739 738.602 713.184 739.199C713.638 739.786 713.989 740.269 714.235 740.648H714.576V737.182H717.815V759.625C717.815 761.5 717.388 763.025 716.536 764.199C715.693 765.383 714.557 766.249 713.127 766.798C711.707 767.357 710.125 767.636 708.383 767.636ZM708.269 755.648C709.614 755.648 710.75 755.34 711.678 754.724C712.606 754.109 713.312 753.223 713.795 752.068C714.278 750.913 714.519 749.53 714.519 747.92C714.519 746.348 714.282 744.961 713.809 743.759C713.335 742.556 712.635 741.614 711.707 740.932C710.779 740.25 709.633 739.909 708.269 739.909C706.849 739.909 705.665 740.269 704.718 740.989C703.781 741.708 703.075 742.674 702.602 743.886C702.138 745.098 701.906 746.443 701.906 747.92C701.906 749.436 702.142 750.776 702.616 751.94C703.099 753.096 703.809 754.005 704.746 754.668C705.693 755.321 706.868 755.648 708.269 755.648ZM727.303 745.875V759H723.951V729.909H727.303V740.591H727.587C728.099 739.464 728.866 738.569 729.888 737.906C730.921 737.234 732.294 736.898 734.008 736.898C735.495 736.898 736.797 737.196 737.914 737.793C739.031 738.38 739.898 739.284 740.513 740.506C741.138 741.718 741.451 743.261 741.451 745.136V759H738.099V745.364C738.099 743.631 737.649 742.291 736.749 741.344C735.859 740.387 734.623 739.909 733.042 739.909C731.943 739.909 730.959 740.141 730.087 740.605C729.226 741.069 728.544 741.746 728.042 742.636C727.549 743.527 727.303 744.606 727.303 745.875ZM757.072 737.182V740.023H745.766V737.182H757.072ZM749.061 731.955H752.413V752.75C752.413 753.697 752.551 754.407 752.825 754.881C753.109 755.345 753.469 755.657 753.905 755.818C754.35 755.97 754.819 756.045 755.311 756.045C755.68 756.045 755.983 756.027 756.22 755.989C756.457 755.941 756.646 755.903 756.788 755.875L757.47 758.886C757.243 758.972 756.926 759.057 756.518 759.142C756.111 759.237 755.595 759.284 754.97 759.284C754.023 759.284 753.095 759.08 752.186 758.673C751.286 758.266 750.538 757.646 749.942 756.812C749.355 755.979 749.061 754.928 749.061 753.659V731.955ZM777.179 742.068L774.168 742.92C773.978 742.419 773.699 741.931 773.33 741.457C772.97 740.974 772.477 740.577 771.852 740.264C771.227 739.952 770.427 739.795 769.452 739.795C768.116 739.795 767.004 740.103 766.114 740.719C765.233 741.325 764.793 742.097 764.793 743.034C764.793 743.867 765.096 744.526 765.702 745.009C766.308 745.491 767.255 745.894 768.543 746.216L771.781 747.011C773.732 747.485 775.186 748.209 776.142 749.185C777.098 750.151 777.577 751.396 777.577 752.92C777.577 754.17 777.217 755.288 776.497 756.273C775.787 757.258 774.793 758.034 773.514 758.602C772.236 759.17 770.749 759.455 769.054 759.455C766.829 759.455 764.987 758.972 763.528 758.006C762.07 757.04 761.147 755.629 760.759 753.773L763.94 752.977C764.243 754.152 764.816 755.032 765.659 755.619C766.511 756.206 767.624 756.5 768.997 756.5C770.56 756.5 771.8 756.169 772.719 755.506C773.647 754.833 774.111 754.028 774.111 753.091C774.111 752.333 773.846 751.699 773.315 751.188C772.785 750.667 771.971 750.278 770.872 750.023L767.236 749.17C765.238 748.697 763.77 747.963 762.832 746.969C761.904 745.965 761.44 744.71 761.44 743.205C761.44 741.973 761.786 740.884 762.477 739.938C763.178 738.991 764.13 738.247 765.332 737.707C766.545 737.168 767.918 736.898 769.452 736.898C771.611 736.898 773.306 737.371 774.537 738.318C775.777 739.265 776.658 740.515 777.179 742.068ZM793.873 759V737.182H797.112V740.477H797.339C797.737 739.398 798.456 738.522 799.498 737.849C800.54 737.177 801.714 736.841 803.021 736.841C803.267 736.841 803.575 736.846 803.944 736.855C804.313 736.865 804.593 736.879 804.782 736.898V740.307C804.668 740.278 804.408 740.236 804.001 740.179C803.603 740.113 803.182 740.08 802.737 740.08C801.676 740.08 800.729 740.302 799.896 740.747C799.072 741.183 798.418 741.789 797.935 742.565C797.462 743.332 797.225 744.208 797.225 745.193V759H793.873ZM817.239 759.455C815.137 759.455 813.324 758.991 811.799 758.062C810.284 757.125 809.114 755.818 808.29 754.142C807.476 752.456 807.069 750.496 807.069 748.261C807.069 746.027 807.476 744.057 808.29 742.352C809.114 740.638 810.26 739.303 811.728 738.347C813.205 737.381 814.929 736.898 816.898 736.898C818.035 736.898 819.157 737.087 820.265 737.466C821.373 737.845 822.381 738.46 823.29 739.312C824.2 740.155 824.924 741.273 825.464 742.665C826.004 744.057 826.273 745.771 826.273 747.807V749.227H809.455V746.33H822.864C822.864 745.098 822.618 744 822.126 743.034C821.643 742.068 820.951 741.306 820.052 740.747C819.162 740.188 818.111 739.909 816.898 739.909C815.563 739.909 814.408 740.241 813.433 740.903C812.467 741.557 811.723 742.409 811.202 743.46C810.682 744.511 810.421 745.638 810.421 746.841V748.773C810.421 750.42 810.705 751.817 811.273 752.963C811.851 754.099 812.651 754.966 813.674 755.562C814.697 756.15 815.885 756.443 817.239 756.443C818.12 756.443 818.915 756.32 819.626 756.074C820.345 755.818 820.966 755.439 821.487 754.938C822.007 754.426 822.41 753.792 822.694 753.034L825.933 753.943C825.592 755.042 825.019 756.008 824.214 756.841C823.409 757.665 822.415 758.309 821.231 758.773C820.047 759.227 818.717 759.455 817.239 759.455ZM846.827 742.068L843.816 742.92C843.627 742.419 843.347 741.931 842.978 741.457C842.618 740.974 842.126 740.577 841.501 740.264C840.876 739.952 840.076 739.795 839.1 739.795C837.765 739.795 836.652 740.103 835.762 740.719C834.881 741.325 834.441 742.097 834.441 743.034C834.441 743.867 834.744 744.526 835.35 745.009C835.956 745.491 836.903 745.894 838.191 746.216L841.43 747.011C843.38 747.485 844.834 748.209 845.79 749.185C846.747 750.151 847.225 751.396 847.225 752.92C847.225 754.17 846.865 755.288 846.146 756.273C845.435 757.258 844.441 758.034 843.163 758.602C841.884 759.17 840.397 759.455 838.702 759.455C836.477 759.455 834.635 758.972 833.177 758.006C831.719 757.04 830.795 755.629 830.407 753.773L833.589 752.977C833.892 754.152 834.465 755.032 835.308 755.619C836.16 756.206 837.272 756.5 838.646 756.5C840.208 756.5 841.449 756.169 842.367 755.506C843.295 754.833 843.759 754.028 843.759 753.091C843.759 752.333 843.494 751.699 842.964 751.188C842.433 750.667 841.619 750.278 840.521 750.023L836.884 749.17C834.886 748.697 833.418 747.963 832.481 746.969C831.553 745.965 831.089 744.71 831.089 743.205C831.089 741.973 831.434 740.884 832.126 739.938C832.826 738.991 833.778 738.247 834.981 737.707C836.193 737.168 837.566 736.898 839.1 736.898C841.259 736.898 842.954 737.371 844.185 738.318C845.426 739.265 846.307 740.515 846.827 742.068ZM861.419 759.455C859.317 759.455 857.503 758.991 855.979 758.062C854.464 757.125 853.294 755.818 852.47 754.142C851.656 752.456 851.249 750.496 851.249 748.261C851.249 746.027 851.656 744.057 852.47 742.352C853.294 740.638 854.44 739.303 855.908 738.347C857.385 737.381 859.108 736.898 861.078 736.898C862.214 736.898 863.337 737.087 864.445 737.466C865.553 737.845 866.561 738.46 867.47 739.312C868.379 740.155 869.104 741.273 869.643 742.665C870.183 744.057 870.453 745.771 870.453 747.807V749.227H853.635V746.33H867.044C867.044 745.098 866.798 744 866.305 743.034C865.822 742.068 865.131 741.306 864.232 740.747C863.341 740.188 862.29 739.909 861.078 739.909C859.743 739.909 858.588 740.241 857.612 740.903C856.646 741.557 855.903 742.409 855.382 743.46C854.861 744.511 854.601 745.638 854.601 746.841V748.773C854.601 750.42 854.885 751.817 855.453 752.963C856.031 754.099 856.831 754.966 857.854 755.562C858.876 756.15 860.065 756.443 861.419 756.443C862.3 756.443 863.095 756.32 863.805 756.074C864.525 755.818 865.145 755.439 865.666 754.938C866.187 754.426 866.589 753.792 866.874 753.034L870.112 753.943C869.771 755.042 869.198 756.008 868.393 756.841C867.589 757.665 866.594 758.309 865.411 758.773C864.227 759.227 862.896 759.455 861.419 759.455ZM875.553 759V737.182H878.791V740.477H879.018C879.416 739.398 880.136 738.522 881.178 737.849C882.219 737.177 883.393 736.841 884.7 736.841C884.946 736.841 885.254 736.846 885.624 736.855C885.993 736.865 886.272 736.879 886.462 736.898V740.307C886.348 740.278 886.088 740.236 885.68 740.179C885.283 740.113 884.861 740.08 884.416 740.08C883.356 740.08 882.409 740.302 881.575 740.747C880.751 741.183 880.098 741.789 879.615 742.565C879.142 743.332 878.905 744.208 878.905 745.193V759H875.553ZM908.94 737.182L900.872 759H897.463L889.395 737.182H893.031L899.054 754.568H899.281L905.304 737.182H908.94ZM921.732 759.455C919.629 759.455 917.816 758.991 916.291 758.062C914.776 757.125 913.607 755.818 912.783 754.142C911.968 752.456 911.561 750.496 911.561 748.261C911.561 746.027 911.968 744.057 912.783 742.352C913.607 740.638 914.752 739.303 916.22 738.347C917.697 737.381 919.421 736.898 921.391 736.898C922.527 736.898 923.649 737.087 924.757 737.466C925.865 737.845 926.874 738.46 927.783 739.312C928.692 740.155 929.416 741.273 929.956 742.665C930.496 744.057 930.766 745.771 930.766 747.807V749.227H913.947V746.33H927.357C927.357 745.098 927.11 744 926.618 743.034C926.135 742.068 925.444 741.306 924.544 740.747C923.654 740.188 922.603 739.909 921.391 739.909C920.055 739.909 918.9 740.241 917.925 740.903C916.959 741.557 916.215 742.409 915.695 743.46C915.174 744.511 914.913 745.638 914.913 746.841V748.773C914.913 750.42 915.197 751.817 915.766 752.963C916.343 754.099 917.143 754.966 918.166 755.562C919.189 756.15 920.377 756.443 921.732 756.443C922.612 756.443 923.408 756.32 924.118 756.074C924.838 755.818 925.458 755.439 925.979 754.938C926.5 754.426 926.902 753.792 927.186 753.034L930.425 753.943C930.084 755.042 929.511 756.008 928.706 756.841C927.901 757.665 926.907 758.309 925.723 758.773C924.539 759.227 923.209 759.455 921.732 759.455ZM944.104 759.455C942.286 759.455 940.68 758.995 939.288 758.077C937.896 757.149 936.807 755.842 936.021 754.156C935.235 752.461 934.842 750.458 934.842 748.148C934.842 745.856 935.235 743.867 936.021 742.182C936.807 740.496 937.901 739.194 939.303 738.276C940.704 737.357 942.323 736.898 944.161 736.898C945.581 736.898 946.703 737.134 947.527 737.608C948.36 738.072 948.995 738.602 949.43 739.199C949.875 739.786 950.221 740.269 950.467 740.648H950.751V729.909H954.104V759H950.865V755.648H950.467C950.221 756.045 949.871 756.547 949.416 757.153C948.962 757.75 948.313 758.285 947.47 758.759C946.627 759.223 945.505 759.455 944.104 759.455ZM944.558 756.443C945.903 756.443 947.039 756.093 947.967 755.392C948.895 754.682 949.601 753.702 950.084 752.452C950.567 751.192 950.808 749.739 950.808 748.091C950.808 746.462 950.571 745.037 950.098 743.815C949.625 742.584 948.924 741.628 947.996 740.946C947.068 740.255 945.922 739.909 944.558 739.909C943.138 739.909 941.954 740.274 941.007 741.003C940.07 741.723 939.364 742.703 938.891 743.943C938.427 745.174 938.195 746.557 938.195 748.091C938.195 749.644 938.431 751.055 938.905 752.324C939.388 753.583 940.098 754.587 941.036 755.335C941.982 756.074 943.157 756.443 944.558 756.443ZM963.152 759.227C962.451 759.227 961.85 758.976 961.348 758.474C960.846 757.973 960.595 757.371 960.595 756.67C960.595 755.97 960.846 755.368 961.348 754.866C961.85 754.365 962.451 754.114 963.152 754.114C963.853 754.114 964.454 754.365 964.956 754.866C965.458 755.368 965.709 755.97 965.709 756.67C965.709 757.134 965.59 757.561 965.354 757.949C965.126 758.337 964.819 758.65 964.43 758.886C964.052 759.114 963.625 759.227 963.152 759.227Z" fill="#FDFDFD" style="fill:#FDFDFD;fill:color(display-p3 0.9916 0.9916 0.9916);fill-opacity:1;"/>
</g>
<defs>
<filter id="filter0_f_0_1" x="-295.896" y="0.925781" width="2091.52" height="901.569" filterUnits="userSpaceOnUse" color-interpolation-filters="sRGB">
<feFlood flood-opacity="0" result="BackgroundImageFix"/>
<feBlend mode="normal" in="SourceGraphic" in2="BackgroundImageFix" result="shape"/>
<feGaussianBlur stdDeviation="2" result="effect1_foregroundBlur_0_1"/>
</filter>
<linearGradient id="paint0_linear_0_1" x1="328.5" y1="149.273" x2="1334.53" y2="1054.23" gradientUnits="userSpaceOnUse">
<stop stop-color="#194866" style="stop-color:#194866;stop-color:color(display-p3 0.0980 0.2824 0.4000);stop-opacity:1;"/>
<stop offset="0.468265" stop-color="#2C6E98" stop-opacity="0.943808" style="stop-color:#2C6E98;stop-color:color(display-p3 0.1738 0.4314 0.5958);stop-opacity:0.943808;"/>
<stop offset="1" stop-color="#194866" stop-opacity="0.88" style="stop-color:#194866;stop-color:color(display-p3 0.0980 0.2824 0.4000);stop-opacity:0.88;"/>
</linearGradient>
<clipPath id="clip0_0_1">
<rect width="1440" height="7620" fill="white" style="fill:white;fill-opacity:1;" transform="translate(0 -6780)"/>
</clipPath>
</defs>
</svg>
