<svg width="70" height="63" viewBox="0 0 70 63" fill="none" xmlns="http://www.w3.org/2000/svg">
<path id="Vector" d="M34.9425 46.254C39.036 46.254 43.5259 45.5421 48.4122 44.1184C53.2985 42.6946 60.2819 40.1053 69.3624 36.3504C69.5096 35.5856 69.6207 34.8356 69.6956 34.1004C69.7705 33.3627 69.8079 32.5881 69.8079 31.7766C69.8079 29.8709 69.006 28.3193 67.4022 27.1218C65.7984 25.9267 64.0345 25.6181 62.1104 26.1959C61.1135 26.5033 60.0495 26.8599 58.9183 27.2656C57.7871 27.6713 56.3357 28.2123 54.564 28.8885C50.2768 30.5828 46.6909 31.7484 43.8061 32.3852C40.9213 33.0246 37.9668 33.3443 34.9425 33.3443C31.7892 33.3443 28.7572 33.0098 25.8465 32.341C22.9359 31.6721 19.2402 30.4672 14.7593 28.7263C13.2614 28.1115 11.9714 27.616 10.8893 27.2398C9.80976 26.8636 8.778 26.5218 7.79402 26.2144C5.87255 25.6095 4.10604 25.8935 2.49448 27.0664C0.882926 28.2394 0.0771484 29.8094 0.0771484 31.7766C0.0771484 32.5758 0.114597 33.3553 0.189493 34.1152C0.264389 34.8725 0.350906 35.6041 0.449046 36.3098C7.86375 39.6664 14.4197 42.1622 20.117 43.7975C25.8168 45.4352 30.7587 46.254 34.9425 46.254ZM34.9425 62.8523C42.8583 62.8523 49.8675 60.8039 55.9702 56.7072C62.0704 52.6081 66.1909 47.3102 68.3319 40.8135C60.9198 44.02 54.6131 46.3438 49.4117 47.7847C44.2077 49.2233 39.3846 49.9425 34.9425 49.9425C30.4823 49.9425 25.4398 49.1606 19.8148 47.5966C14.1899 46.0376 8.03808 43.7458 1.35942 40.7213C3.35579 47.4786 7.34335 52.8564 13.3221 56.8548C19.3035 60.8531 26.5103 62.8523 34.9425 62.8523ZM34.9425 25.9673C31.1771 25.9673 27.9759 24.7119 25.3391 22.2013C22.7022 19.6907 21.3838 16.6427 21.3838 13.0575C21.3838 9.47227 22.7022 6.42434 25.3391 3.9137C27.9759 1.40306 31.1771 0.147736 34.9425 0.147736C38.708 0.147736 41.9092 1.40306 44.546 3.9137C47.1829 6.42434 48.5013 9.47227 48.5013 13.0575C48.5013 16.6427 47.1829 19.6907 44.546 22.2013C41.9092 24.7119 38.708 25.9673 34.9425 25.9673Z" fill="#0037FC" fill-opacity="0.77"/>
</svg>
